# Blender v2.79 (sub 0) OBJ File: ''
# www.blender.org
mtllib chargeblade_sword.mtl
o Circle
v -0.300000 -0.619168 0.000000
v -0.150000 -0.619168 -0.259808
v -0.150000 -1.215722 -0.259808
v -0.300000 -1.215722 0.000000
v 0.150000 -0.619168 -0.259808
v 0.300000 -0.619168 -0.000000
v 0.300000 -1.215722 -0.000000
v 0.150000 -1.215722 -0.259808
v 0.150000 -0.619168 0.259808
v -0.150000 -0.619168 0.259808
v -0.150000 -1.215722 0.259808
v 0.150000 -1.215722 0.259808
v 0.053812 -1.624058 -0.093204
v -0.053812 -1.624058 -0.093204
v 0.053812 -1.624058 0.093204
v 0.107623 -1.624058 -0.000000
v -0.107623 -1.624058 0.000000
v -0.053812 -1.624058 0.093204
v -0.000000 -1.719762 0.000000
v -0.300000 1.005487 0.000000
v -0.150000 1.005487 -0.259808
v 0.150000 1.005487 -0.259808
v 0.300000 1.005487 -0.000000
v 0.150000 1.005487 0.259808
v -0.150000 1.005487 0.259808
v 0.230774 1.184093 -0.399712
v 0.461548 1.184093 -0.000000
v -0.230774 1.184093 -0.399712
v -0.230774 1.184093 0.399712
v -0.461548 1.184093 0.000000
v 0.230774 1.184093 0.399712
v 0.074119 1.196167 0.498252
v -0.074243 1.196167 0.498252
v -0.074243 1.177791 -0.489712
v 0.074119 1.177791 -0.489712
v 0.065773 6.700404 0.497528
v -0.082589 6.700404 0.497528
v -0.074779 5.418908 -0.370049
v 0.073584 5.418908 -0.370049
v -0.000597 5.625629 -0.370049
v -0.008408 6.907125 0.497528
v 0.000000 1.184093 -0.000000
vn -0.8660 0.0000 -0.5000
vn 0.8660 -0.0000 -0.5000
vn 0.0000 0.0000 1.0000
vn 0.0000 0.0000 -1.0000
vn 0.8660 -0.0000 0.5000
vn -0.8660 0.0000 0.5000
vn 0.0000 -0.3778 -0.9259
vn 0.8019 -0.3778 0.4629
vn -0.8019 -0.3778 0.4629
vn -0.8019 -0.3778 -0.4629
vn 0.8019 -0.3778 -0.4629
vn 0.0000 -0.3778 0.9259
vn -0.6204 -0.6977 -0.3582
vn 0.6204 -0.6977 -0.3582
vn 0.0000 -0.6977 0.7164
vn 0.0000 -0.6977 -0.7164
vn 0.6204 -0.6977 0.3582
vn -0.6204 -0.6977 0.3582
vn 0.6818 -0.6167 -0.3936
vn 0.0000 -0.6167 -0.7872
vn -0.6818 -0.6167 0.3936
vn 0.6818 -0.6167 0.3936
vn -0.6818 -0.6167 -0.3936
vn 0.0000 -0.6167 0.7872
vn 0.0000 -0.9998 0.0186
vn 0.0000 0.0001 1.0000
vn -1.0000 -0.0009 -0.0036
vn 1.0000 0.0009 0.0036
vn 0.0000 0.0282 -0.9996
vn -0.8394 0.3012 -0.4525
vn 0.8451 0.3033 -0.4403
vn 0.0000 1.0000 0.0000
usemtl None
s 1
f 1//1 2//1 3//1 4//1
f 5//2 6//2 7//2 8//2
f 9//3 10//3 11//3 12//3
f 2//4 5//4 8//4 3//4
f 6//5 9//5 12//5 7//5
f 10//6 1//6 4//6 11//6
f 3//7 8//7 13//7 14//7
f 7//8 12//8 15//8 16//8
f 11//9 4//9 17//9 18//9
f 4//10 3//10 14//10 17//10
f 8//11 7//11 16//11 13//11
f 12//12 11//12 18//12 15//12
f 17//13 14//13 19//13
f 13//14 16//14 19//14
f 15//15 18//15 19//15
f 14//16 13//16 19//16
f 16//17 15//17 19//17
f 18//18 17//18 19//18
f 2//1 1//1 20//1 21//1
f 6//2 5//2 22//2 23//2
f 10//3 9//3 24//3 25//3
f 5//4 2//4 21//4 22//4
f 9//5 6//5 23//5 24//5
f 1//6 10//6 25//6 20//6
f 23//19 22//19 26//19 27//19
f 22//20 21//20 28//20 26//20
f 20//21 25//21 29//21 30//21
f 24//22 23//22 27//22 31//22
f 21//23 20//23 30//23 28//23
f 25//24 24//24 31//24 29//24
f 32//25 33//25 34//25 35//25
f 33//26 32//26 36//26 37//26
f 34//27 33//27 37//27 38//27
f 32//28 35//28 39//28 36//28
f 35//29 34//29 38//29 39//29
f 39//4 38//4 40//4
f 37//26 36//26 41//3
f 38//30 37//30 41//30 40//30
f 36//31 39//31 40//31 41//31
f 30//32 29//32 42//32
f 31//32 27//32 42//32
f 26//32 28//32 42//32
f 29//32 31//32 42//32
f 27//32 26//32 42//32
f 28//32 30//32 42//32
