# Blender v2.79 (sub 0) OBJ File: ''
# www.blender.org
mtllib chargeblade_shield.mtl
o Plane.001
v 0.042693 -0.027350 -0.553471
v 0.138299 -0.027350 -0.553471
v 0.138299 -0.565798 -0.006122
v 0.042693 -0.565798 -0.006122
v 0.138299 1.128728 -0.553471
v 0.042693 1.128728 -0.553471
v 0.042693 1.128728 0.541228
v 0.138299 1.128728 0.541228
v 0.042693 -0.027350 0.541228
v 0.138299 -0.027350 0.541228
v 0.049328 -0.689765 0.496555
v 0.049328 -0.689765 -0.496557
v 0.066898 0.487294 -1.000001
v 0.068127 0.487294 0.999999
v -0.049230 -1.293111 -0.000001
v 0.047431 -1.293111 -0.000001
v -0.051128 -0.689765 0.496555
v -0.051128 -0.689765 -0.496557
v -0.068698 0.487294 -1.000001
v -0.069927 0.487294 0.999999
v -0.072869 1.289209 0.711494
v -0.072869 1.289209 -0.711496
v 0.071070 1.289209 -0.711496
v -0.074228 1.881099 -0.000001
v 0.072428 1.881099 -0.000001
v 0.071070 1.289209 0.711494
vt 0.609256 0.732430
vt 0.632592 0.732430
vt 0.632592 0.919837
vt 0.609256 0.919837
vt 0.954925 0.489283
vt 0.978261 0.489283
vt 0.978261 0.756481
vt 0.954925 0.756481
vt 0.120550 0.953054
vt 0.120550 0.929718
vt 0.402731 0.929718
vt 0.402731 0.953053
vt 0.000372 0.756481
vt 0.000372 0.489283
vt 0.282552 0.489283
vt 0.282552 0.756481
vt 0.120550 0.928974
vt 0.120550 0.905638
vt 0.402731 0.905638
vt 0.402731 0.928973
vt 0.608512 0.732430
vt 0.608512 0.999628
vt 0.477086 0.866029
vt 0.469568 0.903335
vt 0.446232 0.903335
vt 0.446232 0.715928
vt 0.469568 0.715928
vt 0.000400 0.365690
vt 0.000372 0.123288
vt 0.287690 0.000372
vt 0.287752 0.488539
vt 0.773109 0.886676
vt 0.773109 0.863083
vt 0.963838 0.862620
vt 0.963838 0.887139
vt 0.477086 0.610485
vt 0.624353 0.489283
vt 0.624353 0.731686
vt 0.772365 0.610485
vt 0.625098 0.731686
vt 0.625098 0.489283
vt 0.773109 0.861413
vt 0.773109 0.837819
vt 0.963838 0.837356
vt 0.963838 0.861876
vt 0.968846 0.000372
vt 0.968846 0.488539
vt 0.773110 0.418121
vt 0.773109 0.070792
vt 0.575830 0.123252
vt 0.575832 0.365654
vt 0.288496 0.488539
vt 0.288496 0.000372
vt 0.120550 0.900605
vt 0.120550 0.876085
vt 0.433027 0.871797
vt 0.433027 0.904893
vt 0.120550 0.866464
vt 0.120550 0.841945
vt 0.433027 0.837356
vt 0.433027 0.871053
vt 0.918716 0.489283
vt 0.953849 0.489283
vt 0.954181 0.715184
vt 0.918384 0.715184
vt 0.000372 0.827218
vt 0.000372 0.794121
vt 0.208389 0.793103
vt 0.208389 0.828236
vt 0.000372 0.791641
vt 0.000372 0.757944
vt 0.208388 0.757226
vt 0.208388 0.792359
vt 0.576638 0.488539
vt 0.576577 0.000372
vt 0.772322 0.070767
vt 0.772365 0.418096
vt 0.469236 0.715184
vt 0.434103 0.715184
vt 0.433771 0.489283
vt 0.469568 0.489283
vt 0.288496 0.836612
vt 0.288616 0.489283
vt 0.433027 0.662997
vt 0.917640 0.489283
vt 0.917520 0.836612
vt 0.773109 0.662898
vn 0.0000 -0.7129 -0.7013
vn 0.0000 1.0000 0.0000
vn 0.0000 0.0000 -1.0000
vn 1.0000 0.0000 0.0000
vn 0.0000 -0.0000 1.0000
vn 0.0000 -0.7129 0.7013
vn 1.0000 -0.0051 -0.0001
vn 1.0000 -0.0098 -0.0004
vn 0.0000 -0.6355 0.7721
vn 1.0000 -0.0031 -0.0000
vn -1.0000 -0.0031 -0.0000
vn -1.0000 -0.0051 -0.0001
vn 0.0000 -0.6355 -0.7721
vn -1.0000 -0.0098 -0.0004
vn -1.0000 -0.0027 -0.0001
vn 0.0000 -0.3933 -0.9194
vn 0.0000 -0.3933 0.9194
vn 0.0000 0.7688 -0.6395
vn 0.0000 0.3385 -0.9410
vn 0.0000 0.3385 0.9410
vn 1.0000 -0.0027 -0.0001
vn 0.0000 0.7688 0.6395
vn 1.0000 -0.0023 -0.0000
vn -1.0000 -0.0023 -0.0000
usemtl Material.001
s 1
f 1/1/1 2/2/1 3/3/1 4/4/1
f 5/5/2 6/6/2 7/7/2 8/8/2
f 2/9/3 1/10/3 6/11/3 5/12/3
f 10/13/4 2/14/4 5/15/4 8/16/4
f 9/17/5 10/18/5 8/19/5 7/20/5
f 2/21/4 10/22/4 3/23/4
f 10/24/6 9/25/6 4/26/6 3/27/6
f 11/28/7 12/29/7 13/30/8 14/31/8
f 15/32/9 16/33/9 11/34/9 17/35/9
f 16/36/10 12/37/7 11/38/7
f 15/39/11 17/40/12 18/41/12
f 16/42/13 15/43/13 18/44/13 12/45/13
f 19/46/14 20/47/14 21/48/15 22/49/15
f 18/50/12 17/51/12 20/52/14 19/53/14
f 12/54/16 18/55/16 19/56/16 13/57/16
f 17/58/17 11/59/17 14/60/17 20/61/17
f 23/62/18 22/63/18 24/64/18 25/65/18
f 13/66/19 19/67/19 22/68/19 23/69/19
f 20/70/20 14/71/20 26/72/20 21/73/20
f 14/74/8 13/75/8 23/76/21 26/77/21
f 21/78/22 26/79/22 25/80/22 24/81/22
f 26/82/21 23/83/21 25/84/23
f 22/85/15 21/86/15 24/87/24
